<?xml version="1.0" encoding="UTF-8"?>
<svg width="194px" height="250px" viewBox="0 0 194 250" version="1.1" xmlns="http://www.w3.org/2000/svg" xmlns:xlink="http://www.w3.org/1999/xlink">
    <!-- Generator: Sketch 51.3 (57544) - http://www.bohemiancoding.com/sketch -->
    <title>Group</title>
    <desc>Created with Sketch.</desc>
    <defs></defs>
    <g id="Page-2" stroke="none" stroke-width="1" fill="none" fill-rule="evenodd">
        <g id="Desktop-HD" transform="translate(-623.000000, -233.000000)">
            <g id="Group" transform="translate(623.000000, 233.000000)">
                <path d="M104.791,191.796183 L104.791,220.838183 L128.421,165.268183 L104.791,191.796183 M104,225.249183 L104,191.453183 L131.499,160.584183 L104,225.249183" id="Fill-38" fill="#171515"></path>
                <path d="M109.791,170.391183 L109.791,221.720183 L162.689,142.064183 L109.791,170.391183 M109,224.698183 L109,169.854183 L165.523,139.584183 L109,224.698183" id="Fill-39" fill="#171515"></path>
                <path d="M67.076,165.268183 L90.708,220.838183 L90.708,191.796183 L67.076,165.268183 M91.497,225.249183 L64,160.584183 L91.497,191.453183 L91.497,225.249183" id="Fill-40" fill="#171515"></path>
                <path d="M32.81,142.081183 L84.732,221.705183 L84.732,170.399183 L32.81,142.081183 M85.522,224.730183 L30,139.584183 L85.522,169.865183 L85.522,224.730183" id="Fill-41" fill="#171515"></path>
                <path d="M109.918,216.584183 L84.773,216.584183 C82.689,216.584183 81,218.273183 81,220.355183 L83.835,245.700183 C83.835,247.782183 85.525,249.473183 87.609,249.473183 L107.082,249.473183 C109.166,249.473183 110.855,247.782183 110.855,245.700183 L113.69,220.355183 C113.69,218.273183 112.002,216.584183 109.918,216.584183" id="Fill-42" fill="#171515"></path>
                <path d="M84.012,246.002183 C84.012,246.001183 84.012,246.000183 84.012,246.000183 C84.012,246.000183 84.012,246.001183 84.012,246.002183 M84.007,245.936183 C84.007,245.934183 84.007,245.933183 84.007,245.932183 C84.007,245.933183 84.007,245.934183 84.007,245.936183 M84.005,245.904183 C84.005,245.903183 84.005,245.901183 84.005,245.899183 C84.005,245.901183 84.005,245.903183 84.005,245.904183 M84.004,245.868183 L84.004,245.867183 L84.004,245.868183 M84.002,245.838183 C84.002,245.835183 84.002,245.833183 84.002,245.831183 C84.002,245.833183 84.002,245.835183 84.002,245.838183 M84.001,245.805183 C84.001,245.803183 84.001,245.801183 84.001,245.799183 C84.001,245.801183 84.001,245.803183 84.001,245.805183 M84.001,245.769183 C84.001,245.767183 84.001,245.765183 84,245.763183 C84.001,245.765183 84.001,245.767183 84.001,245.769183 M84,245.738183 C84,245.736183 84,245.733183 84,245.730183 C84,245.733183 84,245.736183 84,245.738183 M110.216,216.586183 C110.215,216.586183 110.214,216.586183 110.213,216.586183 C110.214,216.586183 110.215,216.586183 110.216,216.586183 M110.197,216.585183 C110.195,216.585183 110.193,216.585183 110.191,216.585183 C110.193,216.585183 110.195,216.585183 110.197,216.585183 M110.177,216.585183 C110.171,216.585183 110.164,216.585183 110.158,216.584183 C110.164,216.585183 110.171,216.585183 110.177,216.585183 M110.148,216.584183 C110.144,216.584183 110.14,216.584183 110.135,216.584183 C110.14,216.584183 110.144,216.584183 110.148,216.584183 M110.127,216.584183 C110.122,216.584183 110.117,216.584183 110.112,216.584183 C110.117,216.584183 110.122,216.584183 110.127,216.584183 M110.104,216.584183 C110.097,216.584183 110.09,216.584183 110.083,216.584183 C110.09,216.584183 110.097,216.584183 110.104,216.584183" id="Fill-43" fill="#E4DFD4"></path>
                <path d="M85.834,249.030183 C84.729,248.439183 83.951,247.314183 83.847,246.002183 C83.847,246.001183 83.847,246.000183 83.847,246.000183 C83.845,245.978183 83.844,245.957183 83.842,245.936183 C83.842,245.934183 83.842,245.933183 83.842,245.932183 C83.841,245.923183 83.841,245.913183 83.84,245.904183 C83.84,245.903183 83.84,245.901183 83.84,245.899183 C83.84,245.889183 83.839,245.878183 83.839,245.868183 L83.839,245.867183 C83.838,245.857183 83.838,245.847183 83.837,245.838183 C83.837,245.835183 83.837,245.833183 83.837,245.831183 C83.837,245.822183 83.837,245.813183 83.836,245.805183 C83.836,245.803183 83.836,245.801183 83.836,245.799183 C83.836,245.789183 83.836,245.779183 83.836,245.769183 C83.836,245.767183 83.836,245.765183 83.835,245.763183 C83.835,245.755183 83.835,245.746183 83.835,245.738183 C83.835,245.736183 83.835,245.733183 83.835,245.730183 C83.835,245.720183 83.835,245.710183 83.835,245.700183 L81,220.355183 C81,218.273183 82.689,216.584183 84.773,216.584183 L109.918,216.584183 C109.925,216.584183 109.932,216.584183 109.939,216.584183 C109.942,216.584183 109.945,216.584183 109.947,216.584183 C109.952,216.584183 109.957,216.584183 109.962,216.584183 C109.964,216.584183 109.967,216.584183 109.97,216.584183 C109.975,216.584183 109.979,216.584183 109.983,216.584183 C109.986,216.584183 109.99,216.584183 109.993,216.584183 C109.999,216.585183 110.006,216.585183 110.012,216.585183 C110.017,216.585183 110.022,216.585183 110.026,216.585183 C110.028,216.585183 110.03,216.585183 110.032,216.585183 C110.038,216.586183 110.043,216.586183 110.048,216.586183 C110.049,216.586183 110.05,216.586183 110.051,216.586183 C110.807,216.612183 111.506,216.863183 112.086,217.273183 L85.834,249.030183" id="Fill-44" fill="#151412"></path>
                <path d="M43.3801774,11.5841831 C43.3801774,11.5841831 -12.3768226,27.7091831 4.01717741,93.2971831 C20.4091774,158.882183 97.5191774,186.851183 97.5191774,186.851183 L43.3801774,11.5841831" id="Fill-45" fill="#FCFBF8"></path>
                <path d="M42.5009228,12.7031831 C40.0889228,13.4931831 27.7869228,17.9011831 17.2629228,28.7411831 C6.50992277,39.8161831 -4.54307723,60.0841831 3.87092277,93.7431831 C12.3029228,127.481183 37.1839228,151.029183 56.5729228,164.843183 C75.0969228,178.041183 92.2699228,185.110183 96.2339228,186.657183 L42.5009228,12.7031831 Z M97.6319228,188.136183 L96.7829228,187.826183 C96.5899228,187.757183 77.2029228,180.640183 56.0719228,165.589183 C36.5519228,151.687183 11.4989228,127.972183 2.99892277,93.9611831 C-5.52007723,59.8801831 5.71792277,39.3261831 16.6459228,28.0871831 C28.4809228,15.9121831 42.5309228,11.7471831 42.6709228,11.7071831 L43.0949228,11.5841831 L43.2269228,12.0061831 L97.6319228,188.136183 Z" id="Fill-46" fill="#171515"></path>
                <path d="M94.4426251,175.570183 L67.1606251,31.7891831 L67.1346251,31.6591831 L62.3776251,6.58418305 C62.1526251,6.59718305 61.8256251,6.61818305 61.4186251,6.65318305 L61.2486251,6.66818305 C59.9506251,6.78618305 57.8806251,7.04318305 55.3026251,7.59918305 C54.1086251,7.85618305 52.8066251,8.17718305 51.4226251,8.57818305 C50.1706251,8.94018305 48.8516251,9.37118305 47.4856251,9.87518305 C44.8616251,10.8451831 42.0606251,12.1001831 39.2226251,13.7211831 C39.0706251,13.8081831 38.9226251,13.8901831 38.7716251,13.9781831 C32.0056251,17.9291831 24.2236251,24.5431831 18.4126251,35.4881831 C17.1966251,37.7751831 16.0696251,40.2511831 15.0546251,42.9321831 C14.5556251,44.2491831 14.0856251,45.6141831 13.6456251,47.0311831 C12.7506251,49.9061831 11.9836251,52.9921831 11.3686251,56.3051831 C10.9676251,58.4631831 10.6306251,60.7181831 10.3666251,63.0741831 C10.3486251,63.2341831 10.3266251,63.3871831 10.3106251,63.5471831 C9.88962512,67.4721831 9.91062512,71.4121831 10.2886251,75.3411831 C10.5076251,77.6071831 10.8496251,79.8701831 11.2996251,82.1241831 C11.9196251,85.2251831 12.7356251,88.3101831 13.7406251,91.3671831 C14.1856251,92.7251831 14.6766251,94.0741831 15.1906251,95.4191831 C16.1756251,98.0041831 17.2766251,100.562183 18.4806251,103.091183 C21.1006251,108.597183 24.1856251,113.948183 27.5396251,119.065183 C29.1846251,121.577183 30.8916251,124.031183 32.6416251,126.418183 C33.4046251,127.463183 34.1756251,128.496183 34.9526251,129.515183 C36.7676251,131.890183 38.6116251,134.194183 40.4626251,136.413183 C41.2886251,137.405183 42.1146251,138.371183 42.9406251,139.328183 C44.4676251,141.098183 45.9936251,142.816183 47.4976251,144.460183 C47.9256251,144.928183 48.3566251,145.389183 48.7866251,145.853183 C49.6536251,146.787183 50.5226251,147.712183 51.3936251,148.624183 C53.4386251,150.757183 55.4896251,152.827183 57.5336251,154.827183 C58.4446251,155.719183 59.3536251,156.597183 60.2616251,157.461183 C62.4206251,159.518183 64.5606251,161.494183 66.6596251,163.375183 C67.6166251,164.231183 68.5636251,165.066183 69.5016251,165.883183 C70.2856251,166.568183 71.0646251,167.243183 71.8326251,167.897183 C78.5296251,173.610183 84.5726251,178.213183 89.1876251,181.400183 C92.3376251,183.573183 94.8266251,185.094183 96.3916251,185.842183 L94.4426251,175.570183" id="Fill-47" fill="#171515"></path>
                <path d="M10.2144423,63.4671831 C10.2304423,63.3071831 10.2524423,63.1541831 10.2704423,62.9941831 C10.5344423,60.6381831 10.8714423,58.3831831 11.2724423,56.2251831 C11.8874423,52.9121831 12.6544423,49.8261831 13.5494423,46.9511831 C13.9894423,45.5341831 14.4594423,44.1691831 14.9584423,42.8521831 C15.9734423,40.1711831 17.1004423,37.6951831 18.3164423,35.4081831 C24.1274423,24.4631831 31.9094423,17.8491831 38.6754423,13.8981831 C38.8264423,13.8101831 38.9744423,13.7281831 39.1264423,13.6411831 C41.9644423,12.0201831 44.7654423,10.7651831 47.3894423,9.79518305 C48.7554423,9.29118305 50.0744423,8.86018305 51.3264423,8.49818305 C52.7104423,8.09718305 54.0124423,7.77618305 55.2064423,7.51918305 C57.7844423,6.96318305 59.8544423,6.70618305 61.1524423,6.58818305 L61.3224423,6.57318305 C61.7294423,6.53818305 62.0564423,6.51718305 62.2814423,6.50418305 L62.5524423,7.93618305 L67.0384423,31.5791831 L67.0644423,31.7091831 L96.2954423,185.762183 C94.7304423,185.014183 92.2414423,183.493183 89.0914423,181.320183 C84.4764423,178.133183 78.4334423,173.530183 71.7364423,167.817183 C70.9684423,167.163183 70.1894423,166.488183 69.4054423,165.803183 C68.4674423,164.986183 67.5204423,164.151183 66.5634423,163.295183 C64.4644423,161.414183 62.3244423,159.438183 60.1654423,157.381183 C59.2574423,156.517183 58.3484423,155.639183 57.4374423,154.747183 C55.3934423,152.747183 53.3424423,150.677183 51.2974423,148.544183 C50.4264423,147.632183 49.5574423,146.707183 48.6904423,145.773183 C48.2604423,145.309183 47.8294423,144.848183 47.4014423,144.380183 C45.8974423,142.736183 44.3714423,141.018183 42.8444423,139.248183 C42.0184423,138.291183 41.1924423,137.325183 40.3664423,136.333183 C38.5154423,134.114183 36.6714423,131.810183 34.8564423,129.435183 C34.0794423,128.416183 33.3084423,127.383183 32.5454423,126.338183 C30.7954423,123.951183 29.0884423,121.497183 27.4434423,118.985183 C24.0894423,113.868183 21.0044423,108.517183 18.3844423,103.011183 C17.1804423,100.482183 16.0794423,97.9241831 15.0944423,95.3391831 C14.5804423,93.9941831 14.0894423,92.6451831 13.6444423,91.2871831 C12.6394423,88.2301831 11.8234423,85.1451831 11.2034423,82.0441831 C10.7534423,79.7901831 10.4114423,77.5271831 10.1924423,75.2611831 C9.81444229,71.3321831 9.79344229,67.3921831 10.2144423,63.4671831 Z M46.7384423,144.987183 C67.9294423,168.147183 91.3884423,184.888183 96.7354423,186.935183 L97.4874423,187.222183 L63.0914423,5.95618305 L63.0214423,5.58418305 L62.6424423,5.59018305 C62.5244423,5.59218305 50.6794423,5.86018305 38.2604423,13.1011831 C26.7994423,19.7811831 12.4774423,33.9241831 9.32044229,63.3721831 C6.09144229,93.4981831 27.8864423,124.383183 46.7384423,144.987183 Z" id="Fill-48" fill="#171515"></path>
                <path d="M87.5380941,3.12780261 C87.5380941,3.12780261 40.1810941,-6.62819739 31.6820941,56.5188026 C23.1810941,119.664803 96.9490941,186.660803 96.9490941,186.660803 L87.5380941,3.12780261" id="Fill-49" fill="#FCFBF8"></path>
                <path d="M81.1929549,3.48218305 C68.7389549,3.48218305 39.0709549,8.69918305 32.5659549,57.0271831 C28.1949549,89.4971831 46.1179549,123.029183 61.9239549,145.444183 C77.0339549,166.874183 93.1389549,182.494183 96.8819549,186.023183 L87.5459549,3.95518305 C86.7119549,3.81518305 84.3969549,3.48218305 81.1929549,3.48218305 Z M97.8929549,188.173183 L97.0849549,187.441183 C96.9009549,187.271183 78.4079549,170.377183 61.1989549,145.975183 C45.2949549,123.428183 27.2639549,89.6721831 31.6759549,56.9071831 C38.2759549,7.87718305 68.5029549,2.58418305 81.1929549,2.58418305 C85.3339549,2.58418305 87.9569549,3.11418305 88.0669549,3.13618305 L88.4069549,3.20618305 L97.8929549,188.173183 Z" id="Fill-50" fill="#171515"></path>
                <path d="M92.8750825,1.58418305 C91.8000825,1.58418305 90.7650825,1.64918305 89.7560825,1.75718305 C86.3360825,2.12618305 83.2980825,3.11718305 80.6810825,4.70418305 C77.8340825,6.43218305 75.4860825,8.86718305 73.6910825,11.9761831 C73.2640825,12.7161831 72.8670825,13.4921831 72.5040825,14.3081831 C72.4580825,14.4101831 72.4060825,14.5061831 72.3620825,14.6091831 C71.8530825,15.7891831 71.3730825,16.9881831 70.9060825,18.1971831 C69.7180825,21.2711831 68.6660825,24.4411831 67.7470825,27.7011831 C67.3370825,29.1451831 66.9530825,30.6071831 66.5970825,32.0881831 C66.5150825,32.4311831 66.4340825,32.7731831 66.3530825,33.1171831 C65.8070825,35.4881831 65.3320825,37.9061831 64.9200825,40.3671831 C64.7840825,41.1751831 64.6510825,41.9831831 64.5290825,42.8011831 C64.2870825,44.4321831 64.0800825,46.0891831 63.8950825,47.7591831 C63.6250825,50.2021831 63.4140825,52.6841831 63.2660825,55.2071831 C63.0720825,58.5451831 62.9850825,61.9551831 63.0020825,65.4351831 C63.0160825,68.3221831 63.1000825,71.2551831 63.2620825,74.2381831 C63.4680825,78.0241831 63.7910825,81.8891831 64.2330825,85.8281831 C64.4290825,87.5721831 64.6460825,89.3301831 64.8880825,91.1021831 C65.1070825,92.7101831 65.3500825,94.3341831 65.6070825,95.9661831 C65.8880825,97.7531831 66.1940825,99.5541831 66.5210825,101.370183 C67.1150825,104.670183 67.7760825,108.009183 68.5210825,111.404183 C69.2630825,114.781183 70.0880825,118.214183 70.9780825,121.686183 C71.3510825,123.139183 71.7360825,124.598183 72.1330825,126.064183 C72.1600825,126.158183 72.1870825,126.253183 72.2120825,126.347183 C72.8580825,128.719183 73.5290825,131.107183 74.2410825,133.523183 C74.3530825,133.895183 74.4650825,134.259183 74.5750825,134.625183 C74.7060825,135.063183 74.8360825,135.499183 74.9690825,135.932183 C75.4030825,137.356183 75.8470825,138.750183 76.2930825,140.123183 C77.3580825,143.407183 78.4460825,146.544183 79.5400825,149.531183 C80.0400825,150.894183 80.5410825,152.228183 81.0420825,153.529183 C81.3350825,154.288183 81.6270825,155.038183 81.9180825,155.775183 C83.4480825,159.639183 84.9600825,163.194183 86.4040825,166.406183 C87.8160825,169.550183 89.1600825,172.364183 90.3930825,174.835183 C91.0420825,176.137183 91.6600825,177.343183 92.2400825,178.451183 C94.0270825,181.862183 95.4420825,184.326183 96.2760825,185.726183 L96.2760825,1.75918305 C95.1160825,1.64318305 93.9730825,1.58418305 92.8750825,1.58418305" id="Fill-51" fill="#171515"></path>
                <path d="M81.8864418,155.674183 C81.5954418,154.937183 81.3034418,154.187183 81.0104418,153.428183 C80.5094418,152.127183 80.0084418,150.793183 79.5084418,149.430183 C78.4144418,146.443183 77.3264418,143.306183 76.2614418,140.022183 C75.8154418,138.649183 75.3714418,137.255183 74.9374418,135.831183 C74.8044418,135.398183 74.6744418,134.962183 74.5434418,134.524183 C74.4334418,134.158183 74.3214418,133.794183 74.2094418,133.422183 C73.4974418,131.006183 72.8264418,128.618183 72.1804418,126.246183 C72.1554418,126.152183 72.1284418,126.057183 72.1014418,125.963183 C71.7044418,124.497183 71.3194418,123.038183 70.9464418,121.585183 C70.0564418,118.113183 69.2314418,114.680183 68.4894418,111.303183 C67.7444418,107.908183 67.0834418,104.569183 66.4894418,101.269183 C66.1624418,99.4531831 65.8564418,97.6521831 65.5754418,95.8651831 C65.3184418,94.2331831 65.0754418,92.6091831 64.8564418,91.0011831 C64.6144418,89.2291831 64.3974418,87.4711831 64.2014418,85.7271831 C63.7594418,81.7881831 63.4364418,77.9231831 63.2304418,74.1371831 C63.0684418,71.1541831 62.9844418,68.2211831 62.9704418,65.3341831 C62.9534418,61.8541831 63.0404418,58.4441831 63.2344418,55.1061831 C63.3824418,52.5831831 63.5934418,50.1011831 63.8634418,47.6581831 C64.0484418,45.9881831 64.2554418,44.3311831 64.4974418,42.7001831 C64.6194418,41.8821831 64.7524418,41.0741831 64.8884418,40.2661831 C65.3004418,37.8051831 65.7754418,35.3871831 66.3214418,33.0161831 C66.4024418,32.6721831 66.4834418,32.3301831 66.5654418,31.9871831 C66.9214418,30.5061831 67.3054418,29.0441831 67.7154418,27.6001831 C68.6344418,24.3401831 69.6864418,21.1701831 70.8744418,18.0961831 C71.3414418,16.8871831 71.8214418,15.6881831 72.3304418,14.5081831 C72.3744418,14.4051831 72.4264418,14.3091831 72.4724418,14.2071831 C72.8354418,13.3911831 73.2324418,12.6151831 73.6594418,11.8751831 C75.4544418,8.76618305 77.8024418,6.33118305 80.6494418,4.60318305 C83.2664418,3.01618305 86.3044418,2.02518305 89.7244418,1.65618305 C90.7334418,1.54818305 91.7684418,1.48318305 92.8434418,1.48318305 C93.9414418,1.48318305 95.0844418,1.54218305 96.2444418,1.65818305 L96.2444418,185.625183 C95.4104418,184.225183 93.9954418,181.761183 92.2084418,178.350183 C91.6284418,177.242183 91.0104418,176.036183 90.3614418,174.734183 C89.1284418,172.263183 87.7844418,169.449183 86.3724418,166.305183 C84.9284418,163.093183 83.4164418,159.538183 81.8864418,155.674183 Z M97.1434418,188.756183 L97.1434418,0.851183054 L96.7424418,0.806183054 C95.4134418,0.659183054 94.1014418,0.584183054 92.8434418,0.584183054 C82.7104418,0.584183054 75.3324418,5.27618305 71.5054418,14.1521831 C63.2214418,33.3771831 60.3314418,56.5601831 62.9164418,83.0541831 C64.8964418,103.354183 69.5334418,120.770183 73.3494418,133.677183 C83.1154418,166.685183 96.1844418,187.264183 96.3154418,187.467183 L97.1434418,188.756183 Z" id="Fill-52" fill="#171515"></path>
                <path d="M193.197,66.7371831 C193.094,64.9761831 192.933,63.2681831 192.711,61.6161831 C192.58,60.6431831 192.434,59.6851831 192.266,58.7481831 C191.5,54.4911831 190.357,50.6201831 188.958,47.1091831 C187.736,44.0461831 186.321,41.2561831 184.787,38.7261831 C184.091,37.5811831 183.371,36.4921831 182.635,35.4501831 C180.828,32.8901831 178.918,30.6361831 177.017,28.6721831 L176.943,28.5951831 C176.068,27.6961831 175.182,26.8451831 174.291,26.0341831 C172.009,23.9551831 169.692,22.1561831 167.451,20.6101831 C166.355,19.8531831 165.277,19.1581831 164.23,18.5191831 C162.009,17.1641831 159.929,16.0671831 158.112,15.1991831 C154.988,13.7041831 152.647,12.8831831 151.733,12.5841831 L151.456,13.4811831 L151.191,14.3341831 L148.532,22.9421831 L142.866,41.2921831 L142.423,42.7201831 L98,186.538183 C99.421,185.982183 102.549,184.713183 106.821,182.711183 C109.197,181.597183 111.925,180.255183 114.92,178.681183 C116.031,178.095183 117.178,177.478183 118.357,176.830183 C120.806,175.481183 123.386,173.994183 126.063,172.363183 C129.79,170.094183 133.692,167.549183 137.66,164.723183 C138.793,163.916183 139.947,163.072183 141.114,162.199183 C142.933,160.835183 144.786,159.388183 146.66,157.863183 C147.627,157.075183 148.6,156.263183 149.574,155.432183 C151.726,153.595183 153.891,151.650183 156.046,149.600183 C156.955,148.736183 157.862,147.855183 158.766,146.953183 C160.785,144.933183 162.783,142.812183 164.742,140.601183 C165.581,139.654183 166.412,138.687183 167.234,137.704183 C169.103,135.470183 170.925,133.146183 172.679,130.732183 C173.437,129.688183 174.187,128.633183 174.919,127.555183 C176.6,125.083183 178.207,122.522183 179.722,119.871183 C182.589,114.853183 185.12,109.506183 187.204,103.838183 C188.353,100.713183 189.366,97.4931831 190.215,94.1701831 C190.264,93.9871831 190.316,93.8081831 190.362,93.6241831 C190.697,92.2831831 190.99,90.9721831 191.265,89.6721831 C191.427,88.9061831 191.589,88.1411831 191.731,87.3901831 C192.171,85.0511831 192.505,82.7901831 192.759,80.5891831 C192.836,79.9081831 192.914,79.2281831 192.976,78.5621831 C193.144,76.7481831 193.25,74.9791831 193.299,73.2601831 C193.363,71.0031831 193.32,68.8331831 193.197,66.7371831" id="Fill-53" fill="#171515"></path>
                <path d="M97.808,185.331183 L141.822,42.8391831 L142.265,41.4111831 L150.59,14.4531831 L150.855,13.6001831 L151.132,12.7031831 C152.046,13.0021831 154.387,13.8231831 157.511,15.3181831 C159.328,16.1861831 161.408,17.2831831 163.629,18.6381831 C164.676,19.2771831 165.754,19.9721831 166.85,20.7291831 C169.091,22.2751831 171.408,24.0741831 173.69,26.1531831 C174.581,26.9641831 175.467,27.8151831 176.342,28.7141831 L176.416,28.7911831 C178.317,30.7551831 180.227,33.0091831 182.034,35.5691831 C182.77,36.6111831 183.49,37.7001831 184.186,38.8451831 C185.72,41.3751831 187.135,44.1651831 188.357,47.2281831 C189.756,50.7391831 190.899,54.6101831 191.665,58.8671831 C191.833,59.8041831 191.979,60.7621831 192.11,61.7351831 C192.332,63.3871831 192.493,65.0951831 192.596,66.8561831 C192.719,68.9521831 192.762,71.1221831 192.698,73.3791831 C192.649,75.0981831 192.543,76.8671831 192.375,78.6811831 C192.313,79.3471831 192.235,80.0271831 192.158,80.7081831 C191.904,82.9091831 191.57,85.1701831 191.13,87.5091831 C190.988,88.2601831 190.826,89.0251831 190.664,89.7911831 C190.389,91.0911831 190.096,92.4021831 189.761,93.7431831 C189.715,93.9271831 189.663,94.1061831 189.614,94.2891831 C188.765,97.6121831 187.752,100.832183 186.603,103.957183 C184.519,109.625183 181.988,114.972183 179.121,119.990183 C177.606,122.641183 175.999,125.202183 174.318,127.674183 C173.586,128.752183 172.836,129.807183 172.078,130.851183 C170.324,133.265183 168.502,135.589183 166.633,137.823183 C165.811,138.806183 164.98,139.773183 164.141,140.720183 C162.182,142.931183 160.184,145.052183 158.165,147.072183 C157.261,147.974183 156.354,148.855183 155.445,149.719183 C153.29,151.769183 151.125,153.714183 148.973,155.551183 C147.999,156.382183 147.026,157.194183 146.059,157.982183 C144.185,159.507183 142.332,160.954183 140.513,162.318183 C139.346,163.191183 138.192,164.035183 137.059,164.842183 C133.091,167.668183 129.189,170.213183 125.462,172.482183 C122.785,174.113183 120.205,175.600183 117.756,176.949183 C116.577,177.597183 115.43,178.214183 114.319,178.800183 C111.324,180.374183 108.596,181.716183 106.22,182.830183 C101.948,184.832183 98.82,186.101183 97.399,186.657183 L97.808,185.331183 Z M137.56,165.589183 C157.08,151.687183 182.132,127.972183 190.633,93.9611831 C199.152,59.8801831 187.914,39.3261831 176.986,28.0871831 C165.15,15.9121831 151.101,11.7481831 150.96,11.7071831 L150.536,11.5841831 L96.267,187.274183 L96,188.136183 L96.849,187.826183 C97.044,187.757183 116.43,180.640183 137.56,165.589183 Z" id="Fill-54" fill="#171515"></path>
                <path d="M131.245,6.58418305 C131.245,6.58418305 178.057,7.32018305 184.127,63.9641831 C190.198,120.610183 107.624,182.992183 97,187.060183 L131.245,6.58418305" id="Fill-55" fill="#FCFBF8"></path>
                <path d="M132.206,6.50418305 L98.192,185.762183 C104.673,182.660183 126.877,166.468183 147.084,144.380183 C165.812,123.913183 187.465,93.2611831 184.273,63.4671831 C181.159,34.4161831 167.077,20.4761831 155.812,13.8981831 C144.825,7.48218305 134.303,6.61618305 132.206,6.50418305 Z M97,187.222183 L131.466,5.58418305 L131.844,5.59018305 C131.963,5.59218305 143.808,5.86018305 156.229,13.1001831 C167.688,19.7811831 182.011,33.9241831 185.166,63.3721831 C188.395,93.4981831 166.6,124.383183 147.748,144.987183 C126.558,168.147183 103.1,184.888183 97.753,186.935183 L97,187.222183 Z" id="Fill-56" fill="#171515"></path>
                <path d="M161.794,62.0511831 C161.685,60.4101831 161.535,58.7681831 161.316,57.1291831 C161.196,56.2431831 161.066,55.3771831 160.931,54.5201831 C160.468,51.5691831 159.917,48.7881831 159.285,46.1671831 C158.922,44.6581831 158.531,43.2041831 158.117,41.7991831 C157.561,39.9111831 156.962,38.1131831 156.322,36.4041831 C154.452,31.4021831 152.247,27.1481831 149.822,23.5361831 C149.274,22.7191831 148.713,21.9331831 148.144,21.1801831 C147.352,20.1311831 146.538,19.1461831 145.711,18.2161831 C144.055,16.3551831 142.336,14.7251831 140.586,13.2981831 C136.989,10.3651831 133.259,8.29018305 129.651,6.83518305 C129.089,6.61018305 128.532,6.39718305 127.979,6.20018305 C126.612,5.71518305 125.271,5.31418305 123.968,4.98518305 C120.668,4.15218305 117.615,3.77918305 115.039,3.64618305 C114.204,3.60318305 113.415,3.58418305 112.688,3.58418305 C110.855,3.58418305 109.327,3.69418305 108.186,3.81318305 C107.334,3.90218305 106.693,3.99718305 106.337,4.05718305 L105.931,11.9751831 L105.918,12.2011831 L97,186.126183 C100.664,182.671183 116.175,167.622183 131.006,146.883183 C131.324,146.439183 131.641,145.996183 131.959,145.546183 C132.624,144.602183 133.293,143.631183 133.963,142.650183 C134.69,141.590183 135.417,140.508183 136.144,139.404183 C137.761,136.948183 139.378,134.397183 140.969,131.749183 C141.646,130.623183 142.316,129.475183 142.981,128.319183 C144.494,125.687183 145.97,122.979183 147.394,120.201183 C148.009,118.997183 148.618,117.783183 149.211,116.554183 C150.137,114.637183 151.034,112.693183 151.892,110.723183 C153.315,107.452183 154.628,104.109183 155.813,100.715183 C156.538,98.6391831 157.212,96.5451831 157.828,94.4331831 C158.249,92.9891831 158.646,91.5401831 159.011,90.0841831 C159.686,87.3791831 160.261,84.6521831 160.719,81.9111831 C161.157,79.2961831 161.482,76.6691831 161.694,74.0321831 C162.015,70.0471831 162.063,66.0471831 161.794,62.0511831" id="Fill-57" fill="#171515"></path>
                <path d="M97.095,184.387183 L105.929,12.1001831 L105.942,11.8741831 L106.348,3.95618305 C106.704,3.89618305 107.345,3.80118305 108.197,3.71218305 C109.338,3.59318305 110.866,3.48318305 112.699,3.48318305 C113.426,3.48318305 114.215,3.50218305 115.05,3.54518305 C117.626,3.67818305 120.679,4.05118305 123.979,4.88418305 C125.282,5.21318305 126.623,5.61418305 127.99,6.09918305 C128.543,6.29618305 129.1,6.50918305 129.662,6.73418305 C133.27,8.18918305 137,10.2641831 140.597,13.1971831 C142.347,14.6241831 144.066,16.2541831 145.722,18.1151831 C146.549,19.0451831 147.363,20.0301831 148.155,21.0791831 C148.724,21.8321831 149.285,22.6181831 149.833,23.4351831 C152.258,27.0471831 154.463,31.3011831 156.333,36.3031831 C156.973,38.0121831 157.572,39.8101831 158.128,41.6981831 C158.542,43.1031831 158.933,44.5571831 159.296,46.0661831 C159.928,48.6871831 160.479,51.4681831 160.942,54.4191831 C161.077,55.2761831 161.207,56.1421831 161.327,57.0281831 C161.546,58.6671831 161.696,60.3091831 161.805,61.9501831 C162.074,65.9461831 162.026,69.9461831 161.705,73.9311831 C161.493,76.5681831 161.168,79.1951831 160.73,81.8101831 C160.272,84.5511831 159.697,87.2781831 159.022,89.9831831 C158.657,91.4391831 158.26,92.8881831 157.839,94.3321831 C157.223,96.4441831 156.549,98.5381831 155.824,100.614183 C154.639,104.008183 153.326,107.351183 151.903,110.622183 C151.045,112.592183 150.148,114.536183 149.222,116.453183 C148.629,117.682183 148.02,118.896183 147.405,120.100183 C145.981,122.878183 144.505,125.586183 142.992,128.218183 C142.327,129.374183 141.657,130.522183 140.98,131.648183 C139.389,134.296183 137.772,136.847183 136.155,139.303183 C135.428,140.407183 134.701,141.489183 133.974,142.549183 C133.304,143.530183 132.635,144.501183 131.97,145.445183 C131.652,145.895183 131.335,146.338183 131.017,146.782183 C116.186,167.521183 100.675,182.570183 97.011,186.025183 L97.095,184.387183 Z M132.694,145.976183 C148.598,123.429183 166.628,89.6731831 162.217,56.9081831 C155.618,7.87818305 125.389,2.58418305 112.699,2.58418305 C108.559,2.58418305 105.934,3.11518305 105.826,3.13718305 L105.485,3.20718305 L96,188.174183 L96.807,187.442183 C96.992,187.274183 115.484,170.378183 132.694,145.976183 Z" id="Fill-58" fill="#171515"></path>
                <path d="M97,0.803190237 L97,186.77519 C97,186.77519 110.053,166.42719 119.913,133.09819 C125.963,112.63719 141.017,58.5321902 121.776,13.8811902 C117.613,4.22219024 109.002,-0.523809763 97,0.803190237" id="Fill-59" fill="#FCFBF8"></path>
                <path d="M97.899,1.65818305 L97.899,185.625183 C100.923,180.542183 111.624,161.504183 119.931,133.422183 C134.275,84.9061831 134.907,44.8981831 121.813,14.5081831 C117.726,5.02818305 109.362,0.518183054 97.899,1.65818305 Z M97,188.756183 L97,0.851183054 L97.4,0.806183054 C98.73,0.659183054 100.041,0.584183054 101.299,0.584183054 C111.432,0.584183054 118.812,5.27618305 122.639,14.1521831 C130.923,33.3771831 133.811,56.5591831 131.226,83.0541831 C129.244,103.349183 124.61,120.769183 120.794,133.677183 C111.028,166.685183 97.959,187.264183 97.827,187.467183 L97,188.756183 Z" id="Fill-60" fill="#171515"></path>
                <path d="M113.966022,221.674183 C113.812022,221.650183 113.665022,221.698183 113.529022,221.790183 C112.841022,222.265183 112.379022,223.967183 112.103022,224.467183 C111.345022,225.833183 110.080022,226.665183 108.449022,226.711183 C107.012022,226.755183 105.662022,226.044183 104.688022,225.023183 C103.830022,224.107183 103.916022,222.425183 102.826022,221.741183 C102.447022,222.423183 102.376022,223.317183 101.973022,224.021183 C101.505022,224.847183 100.844022,225.528183 100.013022,225.994183 C98.3910222,226.901183 95.9430222,226.710183 94.6570222,225.211183 C92.5850222,222.789183 93.4160222,220.614183 91.7820222,222.215183 C90.9960222,222.984183 90.7930222,224.384183 89.9380222,225.234183 C87.4690222,227.688183 82.8810222,225.293183 81.7650222,222.691183 C81.5830222,222.269183 81.3990222,221.850183 81.0760222,221.584183 C80.4180222,224.515183 84.1770222,227.116183 86.7320222,227.116183 C89.2460222,227.116183 91.3850222,225.420183 92.1350222,223.179183 C92.8840222,225.420183 95.0220222,226.994183 97.5380222,226.994183 C100.052022,226.994183 102.193022,225.361183 102.941022,223.121183 C103.690022,225.361183 105.828022,227.122183 108.345022,227.122183 C110.889022,227.122183 114.649022,224.625183 113.966022,221.674183" id="Fill-61" fill="#A3ADB5"></path>
                <path d="M115.555,221.292183 C115.555,222.241183 114.297,222.695183 113.427,222.695183 L81.419,222.695183 C80.549,222.695183 80,222.241183 80,221.292183 L80,217.923183 C80,216.977183 80.549,215.584183 81.419,215.584183 L113.427,215.584183 C114.297,215.584183 115.555,216.977183 115.555,217.923183 L115.555,221.292183" id="Fill-62" fill="#171515"></path>
                <polygon id="Fill-63" fill="#A3ADB5" points="102 233.646183 102.79 233.646183 102.79 222.584183 102 222.584183"></polygon>
                <path d="M97.003,175.584183 L74,175.584183 C74,175.584183 83.053,185.088183 84.101,196.423183 C85.206,197.003183 108.8,197.003183 109.906,196.423183 C110.954,185.088183 120.007,175.584183 120.007,175.584183 L97.003,175.584183" id="Fill-64" fill="#171515"></path>
                <path d="M103.312,235.339366 C102.811,234.053366 102.957,232.771366 102.588,231.448366 C102.182,229.990366 101.582,230.589366 101.359,231.684366 C101.123,232.861366 101.092,234.176366 100.65,235.307366 C100.516,235.654366 99,237.697366 99,239.083366 C99,240.724366 100.33,242.057366 101.974,242.057366 C103.615,242.057366 104.947,240.724366 104.947,239.083366 C104.947,237.727366 103.442,235.672366 103.312,235.339366" id="Fill-65" fill="#FCFBF8"></path>
            </g>
        </g>
    </g>
</svg>