<?xml version="1.0" encoding="UTF-8"?>
<svg width="114px" height="79px" viewBox="0 0 114 79" version="1.1" xmlns="http://www.w3.org/2000/svg" xmlns:xlink="http://www.w3.org/1999/xlink">
    <!-- Generator: Sketch 45 (43475) - http://www.bohemiancoding.com/sketch -->
    <title>Fill 10</title>
    <desc>Created with Sketch.</desc>
    <defs></defs>
    <g id="Page-1" stroke="none" stroke-width="1" fill="none" fill-rule="evenodd">
        <g id="Desktop-HD-Copy-22" transform="translate(-565.000000, -673.000000)" fill="#093261">
            <path d="M569.895046,733.163345 C569.895046,731.137646 570.30538,729.205714 571.046222,727.443821 L577.682369,727.443821 L579.885761,729.644752 C580.246341,730.006152 580.831634,730.006152 581.191394,729.644752 C581.553614,729.284172 581.553614,728.700793 581.191394,728.341853 L580.293088,727.443821 L583.80676,727.443821 C583.889046,727.865636 584.261928,728.187124 584.710807,728.187124 C585.1616,728.187124 585.534756,727.865636 585.617314,727.443821 L589.129893,727.443821 L588.231587,728.341853 C587.871007,728.700793 587.871007,729.284172 588.231587,729.644752 C588.592167,730.006152 589.17664,730.006152 589.535033,729.644752 L591.739245,727.443821 L598.375665,727.443821 C599.115415,729.205714 599.526569,731.137646 599.526569,733.163345 C599.526569,741.336126 592.879214,747.980474 584.710807,747.980474 C576.542948,747.980474 569.895046,741.336126 569.895046,733.163345 Z M627.458527,727.443821 L628.166292,727.443821 C627.948686,727.751093 627.97657,728.179196 628.251038,728.45257 L632.713043,732.915122 C633.021409,733.222121 633.520863,733.222121 633.827588,732.915122 C634.1365,732.608943 634.1365,732.11195 633.827588,731.804405 L629.469191,727.443821 L636.044649,727.443821 L636.044649,730.884229 C636.044649,731.317253 636.396754,731.671272 636.831965,731.671272 C637.265809,731.671272 637.619281,731.317253 637.619281,730.884229 L637.619281,727.471978 L643.34318,728.294286 L639.835522,731.804405 C639.528523,732.11195 639.528523,732.608943 639.835522,732.915122 C640.143341,733.222121 640.641428,733.222121 640.94952,732.915122 L645.292881,728.573674 L647.320767,728.866184 C648.681895,730.881222 649.476592,733.310694 649.476592,735.919499 C649.476592,742.891075 643.804908,748.564947 636.831965,748.564947 C629.860389,748.564947 624.186244,742.891075 624.186244,735.919499 C624.186244,732.659518 625.426267,729.685758 627.458527,727.443821 Z M645.259803,726.503962 L644.078829,726.335017 L644.078829,725.568204 C644.492443,725.857433 644.885828,726.169352 645.259803,726.503962 Z M565.90625,733.163345 C565.90625,738.189321 567.863332,742.912398 571.41555,746.464616 C574.966128,750.013827 579.688385,751.97173 584.710807,751.97173 C589.735416,751.97173 594.45658,750.013827 598.009071,746.464616 C601.561289,742.912398 603.516185,738.189321 603.516185,733.163345 C603.516185,731.193141 603.210279,729.26941 602.628814,727.443821 L623.202372,727.443821 C621.627739,729.961866 620.781374,732.876576 620.781374,735.919499 C620.781374,740.207366 622.452235,744.237167 625.482856,747.271342 C628.514023,750.30087 632.544372,751.97173 636.831965,751.97173 C641.117371,751.97173 645.15018,750.30087 648.182441,747.271342 C651.211969,744.237167 652.882829,740.207366 652.882829,735.919499 C652.882829,733.663072 652.41372,731.476903 651.533183,729.471707 L677.192586,733.155417 C677.751088,733.234969 678.271045,732.846232 678.351417,732.288549 C678.430969,731.729774 678.041685,731.210637 677.483729,731.131085 L650.327331,727.231956 C649.714701,726.281709 648.999009,725.391331 648.182441,724.57285 C646.959914,723.35169 645.575276,722.354969 644.078829,721.596084 L644.078829,716.075028 L629.061864,716.075028 L631.90249,699.930397 L650.772384,677.87734 C651.058333,676.057765 648.954449,677.194999 648.954449,677.194999 C639.57527,679.07171 636.677235,674.808994 636.677235,674.808994 C636.294786,674.154537 635.813921,673.896746 635.371603,673.821021 C634.700197,673.704017 634.118184,674.013203 634.118184,674.013203 C624.399476,680.323761 613.656436,676.741472 613.656436,676.741472 C613.192247,676.34262 612.685139,676.222062 612.238993,676.222062 C611.537789,676.217688 610.985301,676.513479 610.985301,676.513479 C603.196884,679.924909 597.002509,676.90823 597.002509,676.90823 C596.502235,676.491609 596.109944,676.305988 595.809233,676.240378 C595.255651,676.116267 595.013442,676.400302 595.013442,676.400302 C583.474611,680.093581 573.641632,674.751312 573.641632,674.751312 C570.968858,673.673673 572.106639,677.87734 572.106639,677.87734 L576.183188,706.410174 L570.867983,706.410174 L570.867983,720.442447 C567.664863,723.9214 565.90625,728.409103 565.90625,733.163345 L565.90625,733.163345 Z" id="Fill-10"></path>
        </g>
    </g>
</svg>