<?xml version="1.0" encoding="UTF-8"?>
<svg width="152px" height="151px" viewBox="0 0 152 151" version="1.1" xmlns="http://www.w3.org/2000/svg" xmlns:xlink="http://www.w3.org/1999/xlink">
    <!-- Generator: Sketch 45 (43475) - http://www.bohemiancoding.com/sketch -->
    <title>Group 12</title>
    <desc>Created with Sketch.</desc>
    <defs></defs>
    <g id="Page-1" stroke="none" stroke-width="1" fill="none" fill-rule="evenodd">
        <g id="Desktop-HD-Copy-22" transform="translate(-1237.000000, -212.000000)" fill="#093261">
            <g id="Group-12" transform="translate(1237.000000, 212.000000)">
                <polyline id="Fill-42" points="62.404 4.979 79.661 0 77.911 46.8 71.033 47.969 62.404 4.979"></polyline>
                <polyline id="Fill-43" points="36.452 15.49 50.498 4.295 66.783 48.205 60.885 51.912 36.452 15.49"></polyline>
                <polyline id="Fill-44" points="16.508 35.14 25.189 19.415 57.043 53.747 53.008 59.431 16.508 35.14"></polyline>
                <polyline id="Fill-45" points="5.587 60.915 7.604 43.071 50.163 62.597 48.61 69.394 5.587 60.915"></polyline>
                <polyline id="Fill-46" points="5.375 88.916 0.404 71.646 47.198 73.406 48.361 80.288 5.375 88.916"></polyline>
                <polyline id="Fill-47" points="15.892 114.859 4.692 100.809 48.593 84.525 52.303 90.428 15.892 114.859"></polyline>
                <polyline id="Fill-48" points="35.542 134.816 19.809 126.117 54.141 94.281 59.827 98.3 35.542 134.816"></polyline>
                <polyline id="Fill-49" points="61.321 145.726 43.46 143.702 62.998 101.153 69.79 102.689 61.321 145.726"></polyline>
                <polyline id="Fill-50" points="89.316 145.936 72.044 150.912 73.813 104.116 80.675 102.947 89.316 145.936"></polyline>
                <polyline id="Fill-51" points="115.257 135.412 101.208 146.627 84.936 102.71 90.827 99.005 115.257 135.412"></polyline>
                <polyline id="Fill-52" points="135.208 115.779 126.517 131.509 94.673 97.158 98.701 91.485 135.208 115.779"></polyline>
                <polyline id="Fill-53" points="146.126 89.991 144.103 107.856 101.547 88.308 103.099 81.523 146.126 89.991"></polyline>
                <polyline id="Fill-54" points="146.335 62 151.31 79.269 104.513 77.499 103.341 70.638 146.335 62"></polyline>
                <polyline id="Fill-55" points="135.821 36.046 147.024 50.114 103.112 66.372 99.407 60.485 135.821 36.046"></polyline>
                <polyline id="Fill-56" points="116.183 16.104 131.911 24.807 97.564 56.64 91.888 52.606 116.183 16.104"></polyline>
                <polyline id="Fill-57" points="90.39 5.184 108.257 7.21 88.712 49.771 81.919 48.215 90.39 5.184"></polyline>
            </g>
        </g>
    </g>
</svg>